<svg id="visual" viewBox="0 0 960 540" width="960" height="540" xmlns="http://www.w3.org/2000/svg" xmlns:xlink="http://www.w3.org/1999/xlink" version="1.1"><rect x="0" y="0" width="960" height="540" fill="#001220"></rect><defs><linearGradient id="grad1_0" x1="43.8%" y1="100%" x2="100%" y2="0%"><stop offset="14.444444444444446%" stop-color="#001220" stop-opacity="1"></stop><stop offset="85.55555555555554%" stop-color="#001220" stop-opacity="1"></stop></linearGradient></defs><defs><linearGradient id="grad2_0" x1="0%" y1="100%" x2="56.3%" y2="0%"><stop offset="14.444444444444446%" stop-color="#001220" stop-opacity="1"></stop><stop offset="85.55555555555554%" stop-color="#001220" stop-opacity="1"></stop></linearGradient></defs><g transform="translate(960, 540)"><path d="M-297 0C-292.4 -37.9 -287.7 -75.8 -274.4 -113.7C-261.1 -151.5 -239.1 -189.3 -207.2 -207.2C-175.3 -225.1 -133.4 -223 -97.2 -234.7C-61 -246.3 -30.5 -271.7 0 -297L0 0Z" fill="#FBAE3C"></path></g><g transform="translate(0, 0)"><path d="M297 0C276.4 33.3 255.9 66.5 241.1 99.9C226.4 133.3 217.5 166.7 198 198C178.5 229.2 148.4 258.3 113.7 274.4C78.9 290.5 39.4 293.8 0 297L0 0Z" fill="#FBAE3C"></path></g></svg>